<svg width="100" height="100" viewBox="0 0 100 100" fill="none" xmlns="http://www.w3.org/2000/svg">
<path d="M50 0C22.3917 0 0 22.3917 0 50C0 77.6083 22.3917 100 50 100C77.6083 100 100 77.6083 100 50C100 22.3917 77.6208 0 50 0ZM24.6667 51.6792L24.8792 51.3417L37.8917 30.9917C37.9352 30.9248 37.996 30.8708 38.0676 30.8354C38.1391 30.8 38.2189 30.7845 38.2985 30.7904C38.3781 30.7964 38.4547 30.8236 38.5202 30.8693C38.5857 30.915 38.6377 30.9774 38.6708 31.05C40.8375 35.9208 42.7208 41.9792 41.8375 45.75C41.4708 47.3 40.4417 49.4 39.2792 51.3417C39.13 51.6257 38.9673 51.9024 38.7917 52.1708C38.7496 52.2307 38.6933 52.2792 38.6278 52.3119C38.5624 52.3446 38.4898 52.3606 38.4167 52.3583H25.0542C24.9744 52.3596 24.8958 52.3392 24.8267 52.2993C24.7576 52.2595 24.7006 52.2017 24.6617 52.132C24.6228 52.0624 24.6035 51.9835 24.6059 51.9038C24.6082 51.824 24.6321 51.7464 24.675 51.6792H24.6667ZM82.6417 58.6792C82.6427 58.7681 82.6176 58.8554 82.5694 58.9303C82.5213 59.0051 82.4522 59.0641 82.3708 59.1C81.3583 59.5292 77.9125 61.1208 76.4792 63.1083C72.8208 68.2 70.0292 75.4833 63.7792 75.4833H37.7208C35.5207 75.48 33.3427 75.0432 31.3115 74.1979C29.2802 73.3525 27.4355 72.1151 25.8826 70.5565C24.3298 68.9979 23.0993 67.1485 22.2615 65.1141C21.4237 63.0797 20.9951 60.9001 21 58.7V58.4C21 58.1583 21.2 57.9583 21.45 57.9583H35.9708C36.2625 57.9583 36.4708 58.2208 36.45 58.5083C36.3417 59.45 36.5208 60.4208 36.9708 61.3C37.8292 63.05 39.6208 64.1417 41.55 64.1417H48.7417V58.5292H41.625C41.5416 58.5283 41.46 58.5047 41.3891 58.4608C41.3181 58.417 41.2605 58.3547 41.2223 58.2805C41.1841 58.2064 41.167 58.1232 41.1726 58.04C41.1782 57.9568 41.2064 57.8767 41.2542 57.8083L41.5167 57.4333C42.1833 56.4708 43.1458 54.9917 44.1042 53.3C44.7542 52.1583 45.3875 50.9417 45.8958 49.7167C45.9958 49.5 46.075 49.2708 46.1667 49.05C46.3042 48.6583 46.4458 48.2917 46.5458 47.9292C46.644 47.6218 46.7343 47.312 46.8167 47C47.0542 45.9583 47.1542 44.8583 47.1542 43.7208C47.1542 43.2708 47.1375 42.8 47.0958 42.3583C47.075 41.8708 47.0125 41.3792 46.9542 40.8917C46.9076 40.4555 46.8408 40.0217 46.7542 39.5917C46.642 38.9369 46.5058 38.2864 46.3458 37.6417L46.2875 37.3917C46.1625 36.9417 46.0542 36.5167 45.9125 36.0708C45.5157 34.7017 45.0598 33.3504 44.5458 32.0208C44.3668 31.5207 44.1694 31.0273 43.9542 30.5417C43.6542 29.8 43.3458 29.1292 43.0667 28.5C42.9278 28.2305 42.7971 27.9567 42.675 27.6792C42.5395 27.3797 42.3964 27.0838 42.2458 26.7917C42.1458 26.5708 42.025 26.3583 41.9458 26.1583L41.0667 24.5417C40.9458 24.3208 41.1458 24.05 41.3875 24.1208L46.8875 25.6083H46.9292L47.65 25.8167L48.45 26.0417L48.7417 26.1208V22.8583C48.7417 21.2792 50 20 51.5708 20C51.9418 19.999 52.309 20.0731 52.6506 20.2177C52.9922 20.3623 53.3009 20.5746 53.5583 20.8417C54.0903 21.3783 54.3897 22.1027 54.3917 22.8583V27.7083L54.9792 27.8708C55.0208 27.8917 55.0708 27.9125 55.1083 27.9417C55.25 28.0417 55.4583 28.2 55.7208 28.4C55.9292 28.5583 56.15 28.7583 56.4083 28.9708C57.2311 29.6412 58.0289 30.3416 58.8 31.0708C59.6917 31.9 60.6917 32.8708 61.65 33.95C61.9208 34.2583 62.1792 34.5583 62.45 34.8917C62.7083 35.2208 63 35.5417 63.2417 35.8583C63.5708 36.2917 63.9083 36.7417 64.2208 37.2083C64.3583 37.4292 64.5292 37.6583 64.6583 37.8792C65.0583 38.4708 65.4 39.0792 65.7292 39.6917C65.8708 39.9708 66.0083 40.2792 66.1292 40.5792C66.5 41.4 66.7917 42.2292 66.9708 43.0708C67.0301 43.2495 67.0706 43.4338 67.0917 43.6208V43.6625C67.15 43.9 67.1708 44.1625 67.1917 44.4292C67.309 45.6607 67.1583 46.903 66.75 48.0708C66.6208 48.4208 66.5 48.7792 66.3417 49.1292C66.0292 49.8375 65.6708 50.5583 65.2417 51.2208C65.1 51.4708 64.9292 51.7292 64.7708 51.9792C64.5917 52.2417 64.4 52.4917 64.2417 52.7292C64.0125 53.0447 63.7721 53.3518 63.5208 53.65C63.3 53.95 63.0792 54.25 62.8292 54.5208C62.4917 54.9292 62.1625 55.3125 61.8083 55.6792C61.6083 55.9208 61.3917 56.1708 61.1583 56.3875C60.9417 56.6375 60.7083 56.8583 60.5083 57.0583C60.1583 57.4083 59.8833 57.6708 59.6417 57.9L59.0708 58.4083C58.9913 58.4881 58.8834 58.5331 58.7708 58.5333H54.3917V64.1417H59.9C61.1292 64.1417 62.3 63.7083 63.25 62.9C63.5708 62.6208 64.9792 61.4 66.65 59.5583C66.7044 59.4956 66.7774 59.4519 66.8583 59.4333L82.0667 55.0292C82.1334 55.0099 82.2038 55.0063 82.2722 55.0187C82.3406 55.0311 82.4051 55.0592 82.4608 55.1008C82.5165 55.1424 82.5619 55.1963 82.5932 55.2583C82.6246 55.3204 82.6412 55.3888 82.6417 55.4583V58.6792Z" fill="white"/>
</svg>
